<svg xmlns="http://www.w3.org/2000/svg" viewBox="0 0 500 400" width="500" height="400">
  <defs>
    <style>
      text { font-family: Arial, sans-serif; }
    </style>
  </defs>
  <!-- Background -->
  <rect width="500" height="400" fill="#f5f5f5" rx="10"/>
  <!-- Title -->
  <text x="250" y="30" text-anchor="middle" font-size="16" font-weight="bold" fill="#333">Step 3: Plug In the LAN Cable (While Holding #)</text>
  <!-- Phone body -->
  <rect x="150" y="50" width="200" height="300" rx="12" fill="#2c2c2c" stroke="#1a1a1a" stroke-width="2"/>
  <!-- Screen -->
  <rect x="175" y="70" width="150" height="90" rx="4" fill="#1a1a1a" stroke="#444" stroke-width="1"/>
  <text x="250" y="115" text-anchor="middle" font-size="11" fill="#33cc33">Booting...</text>
  <!-- Keypad (abbreviated) -->
  <rect x="180" y="200" width="35" height="25" rx="3" fill="#444" stroke="#555" stroke-width="1"/>
  <text x="197" y="217" text-anchor="middle" font-size="11" fill="#ddd">1</text>
  <rect x="225" y="200" width="35" height="25" rx="3" fill="#444" stroke="#555" stroke-width="1"/>
  <text x="242" y="217" text-anchor="middle" font-size="11" fill="#ddd">2</text>
  <rect x="270" y="200" width="35" height="25" rx="3" fill="#444" stroke="#555" stroke-width="1"/>
  <text x="287" y="217" text-anchor="middle" font-size="11" fill="#ddd">3</text>
  <rect x="180" y="230" width="35" height="25" rx="3" fill="#444" stroke="#555" stroke-width="1"/>
  <text x="197" y="247" text-anchor="middle" font-size="11" fill="#ddd">4</text>
  <rect x="225" y="230" width="35" height="25" rx="3" fill="#444" stroke="#555" stroke-width="1"/>
  <text x="242" y="247" text-anchor="middle" font-size="11" fill="#ddd">5</text>
  <rect x="270" y="230" width="35" height="25" rx="3" fill="#444" stroke="#555" stroke-width="1"/>
  <text x="287" y="247" text-anchor="middle" font-size="11" fill="#ddd">6</text>
  <rect x="180" y="260" width="35" height="25" rx="3" fill="#444" stroke="#555" stroke-width="1"/>
  <text x="197" y="277" text-anchor="middle" font-size="11" fill="#ddd">7</text>
  <rect x="225" y="260" width="35" height="25" rx="3" fill="#444" stroke="#555" stroke-width="1"/>
  <text x="242" y="277" text-anchor="middle" font-size="11" fill="#ddd">8</text>
  <rect x="270" y="260" width="35" height="25" rx="3" fill="#444" stroke="#555" stroke-width="1"/>
  <text x="287" y="277" text-anchor="middle" font-size="11" fill="#ddd">9</text>
  <rect x="180" y="290" width="35" height="25" rx="3" fill="#444" stroke="#555" stroke-width="1"/>
  <text x="197" y="307" text-anchor="middle" font-size="11" fill="#ddd">*</text>
  <rect x="225" y="290" width="35" height="25" rx="3" fill="#444" stroke="#555" stroke-width="1"/>
  <text x="242" y="307" text-anchor="middle" font-size="11" fill="#ddd">0</text>
  <!-- # button STILL HELD -->
  <rect x="270" y="290" width="35" height="25" rx="3" fill="#ff6600" stroke="#ff3300" stroke-width="3"/>
  <text x="287" y="307" text-anchor="middle" font-size="13" fill="#fff" font-weight="bold">#</text>
  <!-- LAN port -->
  <rect x="355" y="180" width="40" height="20" rx="3" fill="#666" stroke="#888" stroke-width="1"/>
  <text x="375" y="194" text-anchor="middle" font-size="8" fill="#fff">LAN</text>
  <!-- Cable being plugged IN with arrow -->
  <rect x="430" y="183" width="25" height="14" rx="2" fill="#0077cc" stroke="#005599" stroke-width="1"/>
  <text x="442" y="193" text-anchor="middle" font-size="7" fill="#fff">RJ45</text>
  <line x1="430" y1="190" x2="400" y2="190" stroke="#0077cc" stroke-width="3"/>
  <polygon points="400,186 390,190 400,194" fill="#0077cc"/>
  <!-- Green check on connection -->
  <circle cx="420" cy="165" r="12" fill="#33cc33"/>
  <polyline points="414,165 418,170 427,160" fill="none" stroke="#fff" stroke-width="2.5"/>
  <!-- Still holding reminder -->
  <text x="100" y="305" text-anchor="middle" font-size="10" fill="#ff6600" font-weight="bold">Still</text>
  <text x="100" y="318" text-anchor="middle" font-size="10" fill="#ff6600" font-weight="bold">holding #</text>
  <line x1="120" y1="305" x2="268" y2="302" stroke="#ff6600" stroke-width="1" stroke-dasharray="4,2"/>
  <!-- Instruction text -->
  <text x="250" y="370" text-anchor="middle" font-size="13" fill="#cc0000" font-weight="bold">Plug the LAN cable back in while holding #</text>
  <text x="250" y="388" text-anchor="middle" font-size="11" fill="#666">The phone will begin to power on via PoE</text>
</svg>
