<svg xmlns="http://www.w3.org/2000/svg" viewBox="0 0 500 400" width="500" height="400">
  <defs>
    <style>
      text { font-family: Arial, sans-serif; }
    </style>
  </defs>
  <!-- Background -->
  <rect width="500" height="400" fill="#f5f5f5" rx="10"/>
  <!-- Title -->
  <text x="250" y="30" text-anchor="middle" font-size="16" font-weight="bold" fill="#333">Step 1: Unplug the LAN Cable</text>
  <!-- Phone body -->
  <rect x="150" y="50" width="200" height="300" rx="12" fill="#2c2c2c" stroke="#1a1a1a" stroke-width="2"/>
  <!-- Screen -->
  <rect x="175" y="70" width="150" height="90" rx="4" fill="#1a1a1a" stroke="#444" stroke-width="1"/>
  <!-- Screen off indicator -->
  <text x="250" y="120" text-anchor="middle" font-size="12" fill="#555">Screen OFF</text>
  <!-- Keypad rows -->
  <!-- Row 1: 1 2 3 -->
  <rect x="180" y="200" width="35" height="25" rx="3" fill="#444" stroke="#555" stroke-width="1"/>
  <text x="197" y="217" text-anchor="middle" font-size="11" fill="#ddd">1</text>
  <rect x="225" y="200" width="35" height="25" rx="3" fill="#444" stroke="#555" stroke-width="1"/>
  <text x="242" y="217" text-anchor="middle" font-size="11" fill="#ddd">2</text>
  <rect x="270" y="200" width="35" height="25" rx="3" fill="#444" stroke="#555" stroke-width="1"/>
  <text x="287" y="217" text-anchor="middle" font-size="11" fill="#ddd">3</text>
  <!-- Row 2: 4 5 6 -->
  <rect x="180" y="230" width="35" height="25" rx="3" fill="#444" stroke="#555" stroke-width="1"/>
  <text x="197" y="247" text-anchor="middle" font-size="11" fill="#ddd">4</text>
  <rect x="225" y="230" width="35" height="25" rx="3" fill="#444" stroke="#555" stroke-width="1"/>
  <text x="242" y="247" text-anchor="middle" font-size="11" fill="#ddd">5</text>
  <rect x="270" y="230" width="35" height="25" rx="3" fill="#444" stroke="#555" stroke-width="1"/>
  <text x="287" y="247" text-anchor="middle" font-size="11" fill="#ddd">6</text>
  <!-- Row 3: 7 8 9 -->
  <rect x="180" y="260" width="35" height="25" rx="3" fill="#444" stroke="#555" stroke-width="1"/>
  <text x="197" y="277" text-anchor="middle" font-size="11" fill="#ddd">7</text>
  <rect x="225" y="260" width="35" height="25" rx="3" fill="#444" stroke="#555" stroke-width="1"/>
  <text x="242" y="277" text-anchor="middle" font-size="11" fill="#ddd">8</text>
  <rect x="270" y="260" width="35" height="25" rx="3" fill="#444" stroke="#555" stroke-width="1"/>
  <text x="287" y="277" text-anchor="middle" font-size="11" fill="#ddd">9</text>
  <!-- Row 4: * 0 # -->
  <rect x="180" y="290" width="35" height="25" rx="3" fill="#444" stroke="#555" stroke-width="1"/>
  <text x="197" y="307" text-anchor="middle" font-size="11" fill="#ddd">*</text>
  <rect x="225" y="290" width="35" height="25" rx="3" fill="#444" stroke="#555" stroke-width="1"/>
  <text x="242" y="307" text-anchor="middle" font-size="11" fill="#ddd">0</text>
  <rect x="270" y="290" width="35" height="25" rx="3" fill="#444" stroke="#555" stroke-width="1"/>
  <text x="287" y="307" text-anchor="middle" font-size="11" fill="#ddd">#</text>
  <!-- LAN port at back (shown as side view) -->
  <rect x="355" y="180" width="40" height="20" rx="3" fill="#666" stroke="#888" stroke-width="1"/>
  <text x="375" y="194" text-anchor="middle" font-size="8" fill="#fff">LAN</text>
  <!-- Cable being unplugged with arrow -->
  <line x1="395" y1="190" x2="460" y2="190" stroke="#0077cc" stroke-width="3" stroke-dasharray="6,3"/>
  <polygon points="460,185 470,190 460,195" fill="#0077cc"/>
  <!-- Cable end -->
  <rect x="460" y="183" width="25" height="14" rx="2" fill="#0077cc" stroke="#005599" stroke-width="1"/>
  <text x="472" y="193" text-anchor="middle" font-size="7" fill="#fff">RJ45</text>
  <!-- Red X on connection -->
  <line x1="410" y1="175" x2="430" y2="205" stroke="#ff3333" stroke-width="3"/>
  <line x1="430" y1="175" x2="410" y2="205" stroke="#ff3333" stroke-width="3"/>
  <!-- Instruction text -->
  <text x="250" y="370" text-anchor="middle" font-size="13" fill="#cc0000" font-weight="bold">Disconnect the LAN cable from the phone</text>
  <text x="250" y="388" text-anchor="middle" font-size="11" fill="#666">The phone must be completely powered off</text>
</svg>
