<svg xmlns="http://www.w3.org/2000/svg" viewBox="0 0 500 400" width="500" height="400">
  <defs>
    <style>
      text { font-family: Arial, sans-serif; }
    </style>
  </defs>
  <!-- Background -->
  <rect width="500" height="400" fill="#f5f5f5" rx="10"/>
  <!-- Title -->
  <text x="250" y="30" text-anchor="middle" font-size="16" font-weight="bold" fill="#333">Step 2: Press and Hold the # Button</text>
  <!-- Phone body -->
  <rect x="150" y="50" width="200" height="300" rx="12" fill="#2c2c2c" stroke="#1a1a1a" stroke-width="2"/>
  <!-- Screen -->
  <rect x="175" y="70" width="150" height="90" rx="4" fill="#1a1a1a" stroke="#444" stroke-width="1"/>
  <text x="250" y="120" text-anchor="middle" font-size="12" fill="#555">Screen OFF</text>
  <!-- Keypad rows -->
  <rect x="180" y="200" width="35" height="25" rx="3" fill="#444" stroke="#555" stroke-width="1"/>
  <text x="197" y="217" text-anchor="middle" font-size="11" fill="#ddd">1</text>
  <rect x="225" y="200" width="35" height="25" rx="3" fill="#444" stroke="#555" stroke-width="1"/>
  <text x="242" y="217" text-anchor="middle" font-size="11" fill="#ddd">2</text>
  <rect x="270" y="200" width="35" height="25" rx="3" fill="#444" stroke="#555" stroke-width="1"/>
  <text x="287" y="217" text-anchor="middle" font-size="11" fill="#ddd">3</text>
  <rect x="180" y="230" width="35" height="25" rx="3" fill="#444" stroke="#555" stroke-width="1"/>
  <text x="197" y="247" text-anchor="middle" font-size="11" fill="#ddd">4</text>
  <rect x="225" y="230" width="35" height="25" rx="3" fill="#444" stroke="#555" stroke-width="1"/>
  <text x="242" y="247" text-anchor="middle" font-size="11" fill="#ddd">5</text>
  <rect x="270" y="230" width="35" height="25" rx="3" fill="#444" stroke="#555" stroke-width="1"/>
  <text x="287" y="247" text-anchor="middle" font-size="11" fill="#ddd">6</text>
  <rect x="180" y="260" width="35" height="25" rx="3" fill="#444" stroke="#555" stroke-width="1"/>
  <text x="197" y="277" text-anchor="middle" font-size="11" fill="#ddd">7</text>
  <rect x="225" y="260" width="35" height="25" rx="3" fill="#444" stroke="#555" stroke-width="1"/>
  <text x="242" y="277" text-anchor="middle" font-size="11" fill="#ddd">8</text>
  <rect x="270" y="260" width="35" height="25" rx="3" fill="#444" stroke="#555" stroke-width="1"/>
  <text x="287" y="277" text-anchor="middle" font-size="11" fill="#ddd">9</text>
  <rect x="180" y="290" width="35" height="25" rx="3" fill="#444" stroke="#555" stroke-width="1"/>
  <text x="197" y="307" text-anchor="middle" font-size="11" fill="#ddd">*</text>
  <rect x="225" y="290" width="35" height="25" rx="3" fill="#444" stroke="#555" stroke-width="1"/>
  <text x="242" y="307" text-anchor="middle" font-size="11" fill="#ddd">0</text>
  <!-- # button HIGHLIGHTED -->
  <rect x="270" y="290" width="35" height="25" rx="3" fill="#ff6600" stroke="#ff3300" stroke-width="3"/>
  <text x="287" y="307" text-anchor="middle" font-size="13" fill="#fff" font-weight="bold">#</text>
  <!-- Finger press indicator -->
  <ellipse cx="287" cy="280" rx="20" ry="12" fill="none" stroke="#ff6600" stroke-width="2" stroke-dasharray="4,2"/>
  <!-- Arrow pointing to # -->
  <line x1="380" y1="300" x2="310" y2="300" stroke="#ff6600" stroke-width="2"/>
  <polygon points="310,296 300,300 310,304" fill="#ff6600"/>
  <text x="390" y="295" font-size="11" fill="#ff6600" font-weight="bold">Press &amp; HOLD</text>
  <text x="390" y="310" font-size="11" fill="#ff6600" font-weight="bold">the # button</text>
  <!-- Instruction text -->
  <text x="250" y="370" text-anchor="middle" font-size="13" fill="#cc0000" font-weight="bold">While phone is OFF, press and hold #</text>
  <text x="250" y="388" text-anchor="middle" font-size="11" fill="#666">Keep holding # while performing the next step</text>
</svg>
